<?xml version="1.0" encoding="UTF-8" standalone="no"?>
<svg
   xmlns:dc="http://purl.org/dc/elements/1.1/"
   xmlns:cc="http://creativecommons.org/ns#"
   xmlns:rdf="http://www.w3.org/1999/02/22-rdf-syntax-ns#"
   xmlns:svg="http://www.w3.org/2000/svg"
   xmlns="http://www.w3.org/2000/svg"
   xmlns:sodipodi="http://sodipodi.sourceforge.net/DTD/sodipodi-0.dtd"
   xmlns:inkscape="http://www.inkscape.org/namespaces/inkscape"
   width="169.81841mm"
   height="79.860069mm"
   viewBox="0 0 169.81841 79.860069"
   version="1.1"
   id="svg2906"
   inkscape:version="1.0.1 (3bc2e813f5, 2020-09-07)"
   sodipodi:docname="FIG8.svg">
  <defs
     id="defs2900">
    <clipPath
       id="clip0">
      <rect
         x="260"
         y="316"
         width="642"
         height="302"
         id="rect3469" />
    </clipPath>
    <clipPath
       id="clip1">
      <rect
         x="260"
         y="315"
         width="640"
         height="301"
         id="rect3472" />
    </clipPath>
    <clipPath
       id="clip2">
      <rect
         x="260"
         y="315"
         width="640"
         height="301"
         id="rect3475" />
    </clipPath>
    <clipPath
       id="clip3">
      <rect
         x="260"
         y="315"
         width="640"
         height="301"
         id="rect3478" />
    </clipPath>
    <clipPath
       id="clip4">
      <rect
         x="260"
         y="315"
         width="640"
         height="301"
         id="rect3481" />
    </clipPath>
    <clipPath
       id="clip5">
      <rect
         x="260"
         y="315"
         width="640"
         height="301"
         id="rect3484" />
    </clipPath>
    <clipPath
       id="clip6">
      <rect
         x="260"
         y="315"
         width="640"
         height="301"
         id="rect3487" />
    </clipPath>
    <clipPath
       id="clip7">
      <rect
         x="332"
         y="379"
         width="322"
         height="178"
         id="rect3490" />
    </clipPath>
    <clipPath
       id="clip8">
      <rect
         x="332"
         y="379"
         width="322"
         height="178"
         id="rect3493" />
    </clipPath>
    <clipPath
       id="clip9">
      <rect
         x="332"
         y="379"
         width="322"
         height="178"
         id="rect3496" />
    </clipPath>
    <clipPath
       id="clip10">
      <rect
         x="332"
         y="379"
         width="322"
         height="178"
         id="rect3499" />
    </clipPath>
    <clipPath
       id="clip11">
      <rect
         x="260"
         y="315"
         width="640"
         height="301"
         id="rect3502" />
    </clipPath>
    <clipPath
       id="clip12">
      <rect
         x="260"
         y="315"
         width="640"
         height="301"
         id="rect3505" />
    </clipPath>
    <clipPath
       id="clip13">
      <rect
         x="260"
         y="315"
         width="640"
         height="301"
         id="rect3508" />
    </clipPath>
    <clipPath
       id="clip14">
      <rect
         x="260"
         y="315"
         width="640"
         height="301"
         id="rect3511" />
    </clipPath>
    <clipPath
       id="clip15">
      <rect
         x="260"
         y="315"
         width="640"
         height="301"
         id="rect3514" />
    </clipPath>
    <clipPath
       id="clip16">
      <rect
         x="260"
         y="315"
         width="640"
         height="301"
         id="rect3517" />
    </clipPath>
    <clipPath
       id="clip17">
      <rect
         x="260"
         y="315"
         width="640"
         height="301"
         id="rect3520" />
    </clipPath>
    <clipPath
       id="clip18">
      <rect
         x="260"
         y="315"
         width="640"
         height="301"
         id="rect3523" />
    </clipPath>
    <clipPath
       id="clip19">
      <rect
         x="260"
         y="315"
         width="640"
         height="301"
         id="rect3526" />
    </clipPath>
    <clipPath
       id="clip20">
      <rect
         x="260"
         y="315"
         width="640"
         height="301"
         id="rect3529" />
    </clipPath>
    <clipPath
       id="clip21">
      <rect
         x="260"
         y="315"
         width="640"
         height="301"
         id="rect3532" />
    </clipPath>
    <clipPath
       id="clip22">
      <rect
         x="260"
         y="315"
         width="640"
         height="301"
         id="rect3535" />
    </clipPath>
    <clipPath
       id="clip23">
      <rect
         x="260"
         y="315"
         width="640"
         height="301"
         id="rect3538" />
    </clipPath>
    <clipPath
       id="clip24">
      <rect
         x="260"
         y="315"
         width="640"
         height="301"
         id="rect3541" />
    </clipPath>
    <clipPath
       id="clip25">
      <rect
         x="260"
         y="315"
         width="640"
         height="301"
         id="rect3544" />
    </clipPath>
    <clipPath
       id="clip26">
      <rect
         x="260"
         y="315"
         width="640"
         height="301"
         id="rect3547" />
    </clipPath>
    <clipPath
       id="clip27">
      <rect
         x="260"
         y="315"
         width="640"
         height="301"
         id="rect3550" />
    </clipPath>
    <clipPath
       id="clip28">
      <rect
         x="260"
         y="315"
         width="640"
         height="301"
         id="rect3553" />
    </clipPath>
    <clipPath
       id="clip29">
      <rect
         x="260"
         y="315"
         width="640"
         height="301"
         id="rect3556" />
    </clipPath>
    <clipPath
       id="clip30">
      <rect
         x="260"
         y="315"
         width="640"
         height="301"
         id="rect3559" />
    </clipPath>
    <clipPath
       id="clip31">
      <rect
         x="260"
         y="315"
         width="640"
         height="301"
         id="rect3562" />
    </clipPath>
    <clipPath
       id="clip32">
      <rect
         x="260"
         y="315"
         width="640"
         height="301"
         id="rect3565" />
    </clipPath>
    <clipPath
       id="clip33">
      <rect
         x="260"
         y="315"
         width="640"
         height="301"
         id="rect3568" />
    </clipPath>
    <clipPath
       id="clip34">
      <rect
         x="260"
         y="315"
         width="640"
         height="301"
         id="rect3571" />
    </clipPath>
    <clipPath
       id="clip35">
      <rect
         x="260"
         y="315"
         width="640"
         height="301"
         id="rect3574" />
    </clipPath>
    <clipPath
       id="clip36">
      <rect
         x="260"
         y="315"
         width="640"
         height="301"
         id="rect3577" />
    </clipPath>
    <clipPath
       id="clip37">
      <rect
         x="260"
         y="315"
         width="640"
         height="301"
         id="rect3580" />
    </clipPath>
    <clipPath
       id="clip38">
      <rect
         x="260"
         y="315"
         width="640"
         height="301"
         id="rect3583" />
    </clipPath>
    <clipPath
       id="clip39">
      <rect
         x="260"
         y="315"
         width="640"
         height="301"
         id="rect3586" />
    </clipPath>
    <clipPath
       id="clip40">
      <rect
         x="260"
         y="315"
         width="640"
         height="301"
         id="rect3589" />
    </clipPath>
    <clipPath
       id="clip41">
      <rect
         x="260"
         y="315"
         width="640"
         height="301"
         id="rect3592" />
    </clipPath>
    <clipPath
       id="clip42">
      <rect
         x="260"
         y="315"
         width="640"
         height="301"
         id="rect3595" />
    </clipPath>
    <clipPath
       id="clip43">
      <rect
         x="260"
         y="315"
         width="640"
         height="301"
         id="rect3598" />
    </clipPath>
    <clipPath
       id="clip44">
      <rect
         x="260"
         y="315"
         width="640"
         height="301"
         id="rect3601" />
    </clipPath>
    <clipPath
       id="clip45">
      <rect
         x="260"
         y="315"
         width="640"
         height="301"
         id="rect3604" />
    </clipPath>
    <clipPath
       id="clip46">
      <rect
         x="260"
         y="315"
         width="640"
         height="301"
         id="rect3607" />
    </clipPath>
    <clipPath
       id="clip47">
      <rect
         x="260"
         y="315"
         width="640"
         height="301"
         id="rect3610" />
    </clipPath>
    <clipPath
       id="clip48">
      <rect
         x="260"
         y="315"
         width="640"
         height="301"
         id="rect3613" />
    </clipPath>
    <clipPath
       id="clip49">
      <rect
         x="260"
         y="315"
         width="640"
         height="301"
         id="rect3616" />
    </clipPath>
    <clipPath
       id="clip50">
      <rect
         x="260"
         y="315"
         width="640"
         height="301"
         id="rect3619" />
    </clipPath>
    <clipPath
       id="clip51">
      <rect
         x="260"
         y="315"
         width="640"
         height="301"
         id="rect3622" />
    </clipPath>
    <clipPath
       id="clip52">
      <rect
         x="260"
         y="315"
         width="640"
         height="301"
         id="rect3625" />
    </clipPath>
    <clipPath
       id="clip53">
      <rect
         x="260"
         y="315"
         width="640"
         height="301"
         id="rect3628" />
    </clipPath>
    <clipPath
       id="clip54">
      <rect
         x="260"
         y="315"
         width="640"
         height="301"
         id="rect3631" />
    </clipPath>
    <clipPath
       id="clip55">
      <rect
         x="260"
         y="315"
         width="640"
         height="301"
         id="rect3634" />
    </clipPath>
    <clipPath
       id="clip56">
      <rect
         x="260"
         y="315"
         width="640"
         height="301"
         id="rect3637" />
    </clipPath>
    <clipPath
       id="clip57">
      <rect
         x="260"
         y="315"
         width="640"
         height="301"
         id="rect3640" />
    </clipPath>
    <clipPath
       id="clip58">
      <rect
         x="260"
         y="315"
         width="640"
         height="301"
         id="rect3643" />
    </clipPath>
    <marker
       style="overflow:visible"
       id="Arrow1Mend-7"
       refX="0"
       refY="0"
       orient="auto"
       inkscape:stockid="Arrow1Mend"
       inkscape:isstock="true">
      <path
         transform="matrix(-0.4,0,0,-0.4,-4,0)"
         style="fill:#000000;fill-opacity:1;fill-rule:evenodd;stroke:#000000;stroke-width:1pt;stroke-opacity:1"
         d="M 0,0 5,-5 -12.5,0 5,5 Z"
         id="path3142-6" />
    </marker>
    <marker
       style="overflow:visible"
       id="Arrow1Mend-08"
       refX="0"
       refY="0"
       orient="auto"
       inkscape:stockid="Arrow1Mend"
       inkscape:isstock="true">
      <path
         transform="matrix(-0.4,0,0,-0.4,-4,0)"
         style="fill:#000000;fill-opacity:1;fill-rule:evenodd;stroke:#000000;stroke-width:1pt;stroke-opacity:1"
         d="M 0,0 5,-5 -12.5,0 5,5 Z"
         id="path1453" />
    </marker>
  </defs>
  <sodipodi:namedview
     id="base"
     pagecolor="#ffffff"
     bordercolor="#666666"
     borderopacity="1.0"
     inkscape:pageopacity="0.0"
     inkscape:pageshadow="2"
     inkscape:zoom="0.92795614"
     inkscape:cx="310.63179"
     inkscape:cy="61.729815"
     inkscape:document-units="mm"
     inkscape:current-layer="layer1"
     inkscape:document-rotation="0"
     showgrid="false"
     inkscape:window-width="958"
     inkscape:window-height="1008"
     inkscape:window-x="-7"
     inkscape:window-y="0"
     inkscape:window-maximized="0" />
  <metadata
     id="metadata2903">
    <rdf:RDF>
      <cc:Work
         rdf:about="">
        <dc:format>image/svg+xml</dc:format>
        <dc:type
           rdf:resource="http://purl.org/dc/dcmitype/StillImage" />
        <dc:title></dc:title>
      </cc:Work>
    </rdf:RDF>
  </metadata>
  <g
     inkscape:label="Layer 1"
     inkscape:groupmode="layer"
     id="layer1"
     transform="translate(-23.871673,-11.257554)">
    <g
       clip-path="url(#clip0)"
       transform="matrix(0.26458333,0,0,0.26458333,-44.919993,-72.350778)"
       id="g3884">
      <rect
         x="260"
         y="316"
         width="641"
         height="301"
         fill="#ffffff"
         id="rect3648" />
      <g
         clip-path="url(#clip1)"
         id="g3652">
        <rect
           x="332"
           y="379"
           width="322"
           height="177"
           fill="#ffffff"
           id="rect3650" />
      </g>
      <g
         clip-path="url(#clip2)"
         id="g3656">
        <path
           d="m 332.5,526.5 h 321 m -321,-29 h 321 m -321,-30 h 321 m -321,-29 h 321 m -321,-30 h 321 m -321,-29 h 321"
           stroke="#898989"
           stroke-width="0.666667"
           stroke-linejoin="round"
           stroke-miterlimit="10"
           fill="none"
           id="path3654" />
      </g>
      <g
         clip-path="url(#clip3)"
         id="g3660">
        <path
           d="M 0,0 1.04987e-4,177"
           stroke="#000000"
           stroke-width="0.666667"
           stroke-linejoin="round"
           stroke-miterlimit="10"
           fill="none"
           fill-rule="evenodd"
           transform="matrix(1,0,0,-1,332.5,556.5)"
           id="path3658" />
      </g>
      <g
         clip-path="url(#clip4)"
         id="g3664">
        <path
           d="m 327.5,556.5 h 5 m -5,-30 h 5 m -5,-29 h 5 m -5,-30 h 5 m -5,-29 h 5 m -5,-30 h 5 m -5,-29 h 5"
           stroke="#000000"
           stroke-width="0.666667"
           stroke-linejoin="round"
           stroke-miterlimit="10"
           fill="none"
           id="path3662" />
      </g>
      <g
         clip-path="url(#clip5)"
         id="g3668">
        <path
           d="m 332.5,556.5 h 321"
           stroke="#000000"
           stroke-width="0.666667"
           stroke-linejoin="round"
           stroke-miterlimit="10"
           fill="none"
           fill-rule="evenodd"
           id="path3666" />
      </g>
      <g
         clip-path="url(#clip6)"
         id="g3672">
        <path
           d="m 332.5,556.5 v 4 m 46,-4 v 4 m 46,-4 v 4 m 46,-4 v 4 m 45,-4 v 4 m 46,-4 v 4 m 46,-4 v 4 m 46,-4 v 4"
           stroke="#000000"
           stroke-width="0.666667"
           stroke-linejoin="round"
           stroke-miterlimit="10"
           fill="none"
           id="path3670" />
      </g>
      <g
         clip-path="url(#clip7)"
         id="g3676">
        <path
           d="m 332.5,476.674 c 2.548,-0.025 5.096,-0.05 7.645,-0.075 2.549,-0.025 5.099,-0.062 7.648,-0.074 2.548,-0.013 5.098,-0.025 7.645,0 2.547,0.025 5.088,0.112 7.638,0.149 2.55,0.037 5.111,0.049 7.661,0.074 2.55,0.025 5.093,0.05 7.639,0.075 2.546,0.024 5.088,0.037 7.638,0.074 2.55,0.037 5.111,0.099 7.661,0.149 2.55,0.049 5.092,0.099 7.638,0.149 2.546,0.049 5.089,0.099 7.639,0.149 2.55,0.049 5.111,0.099 7.661,0.149 2.55,0.049 5.092,0.086 7.638,0.148 2.546,0.062 5.089,0.149 7.639,0.224 2.549,0.074 5.111,0.149 7.661,0.223 2.55,0.075 5.092,0.137 7.638,0.223 2.546,0.087 5.088,0.199 7.638,0.298 2.55,0.099 5.112,0.199 7.662,0.298 2.549,0.099 5.092,0.186 7.638,0.298 2.546,0.111 5.088,0.26 7.638,0.372 2.55,0.112 5.111,0.161 7.661,0.298 2.55,0.136 5.093,0.359 7.639,0.521 2.546,0.161 5.088,0.285 7.638,0.446 2.55,0.162 5.111,0.335 7.661,0.522 2.55,0.186 5.092,0.403 7.639,0.595 2.546,0.192 5.088,0.335 7.638,0.558 2.55,0.224 5.111,0.526 7.661,0.782 2.55,0.256 5.092,0.478 7.638,0.752 2.546,0.274 5.089,0.589 7.639,0.893 2.549,0.304 5.111,0.557 7.661,0.931 2.55,0.373 5.103,0.887 7.638,1.31 2.535,0.423 5.008,0.723 7.57,1.228 2.561,0.505 5.237,1.215 7.798,1.802 2.562,0.586 5.047,0.934 7.57,1.719 2.523,0.785 5.008,2.03 7.569,2.993 2.562,0.962 5.238,1.208 7.799,2.784 2.562,1.575 5.046,4.724 7.57,6.67 1.973,1.521 5.566,0.903 7.569,5.002 2.562,5.242 5.505,20.99 7.799,26.449 1.687,4.015 4.389,5.13 5.964,6.305 2.141,1.598 4.473,2.11 6.881,3.283 2.409,1.172 4.894,2.735 7.57,3.752 2.676,1.016 5.466,1.628 8.487,2.346 3.02,0.718 6.231,1.459 9.633,1.96 3.403,0.501 6.958,0.736 10.781,1.048 3.823,0.311 7.876,0.625 12.157,0.824 4.282,0.198 8.755,0.248 13.534,0.365 4.778,0.117 9.748,0.265 15.139,0.339 5.39,0.074 11.163,0.06 17.203,0.104 6.04,0.044 12.272,0.13 19.038,0.158 6.767,0.029 13.954,-0.006 21.562,0.012 7.607,0.017 15.559,0.081 24.085,0.094 8.525,0.013 17.509,-0.028 27.066,-0.015 9.558,0.013 20.185,0.062 30.278,0.093"
           stroke="#ff0000"
           stroke-width="1.33333"
           stroke-linecap="round"
           stroke-linejoin="round"
           stroke-miterlimit="10"
           fill="none"
           id="path3674" />
      </g>
      <g
         clip-path="url(#clip8)"
         id="g3680">
        <path
           d="m 332.5,392.574 c 2.548,0 5.096,0.012 7.645,0 2.549,-0.012 5.099,-0.074 7.648,-0.074 2.548,0 5.098,0.037 7.645,0.074 2.547,0.037 5.088,0.111 7.638,0.148 2.55,0.037 5.111,0.025 7.661,0.074 2.55,0.05 5.093,0.161 7.639,0.222 2.546,0.062 5.088,0.074 7.638,0.148 2.55,0.074 5.111,0.21 7.661,0.297 2.55,0.086 5.092,0.123 7.638,0.222 2.546,0.098 5.089,0.259 7.639,0.37 2.55,0.111 5.111,0.173 7.661,0.296 2.55,0.123 5.092,0.296 7.638,0.444 2.546,0.148 5.089,0.284 7.639,0.445 2.549,0.16 5.111,0.345 7.661,0.518 2.55,0.172 5.092,0.321 7.638,0.518 2.546,0.197 5.088,0.444 7.638,0.666 2.55,0.223 5.112,0.432 7.662,0.667 2.549,0.234 5.092,0.481 7.638,0.74 2.546,0.259 5.088,0.518 7.638,0.815 2.55,0.296 5.111,0.629 7.661,0.962 2.55,0.333 5.093,0.666 7.639,1.037 2.546,0.37 5.088,0.777 7.638,1.184 2.55,0.407 5.111,0.802 7.661,1.259 2.55,0.456 5.092,0.987 7.639,1.481 2.546,0.493 5.088,0.888 7.638,1.481 2.55,0.592 5.111,1.418 7.661,2.073 2.55,0.653 5.092,1.122 7.638,1.851 2.546,0.728 5.089,1.702 7.639,2.517 2.549,0.814 5.111,1.407 7.661,2.369 2.55,0.963 5.103,2.369 7.638,3.406 2.535,1.036 5.008,1.579 7.57,2.813 2.561,1.234 5.237,3.344 7.798,4.591 2.562,1.246 5.047,1.296 7.57,2.887 2.523,1.592 5.008,5.171 7.569,6.664 2.562,1.493 5.238,-0.148 7.799,2.295 2.562,2.443 5.046,10.39 7.57,12.365 1.002,0.784 6.551,-4.195 7.569,-0.519 2.562,9.251 5.505,44.024 7.799,56.026 1.602,8.383 4.468,13.238 5.964,15.985 2.141,3.931 4.473,4.857 6.881,7.604 2.409,2.746 4.894,6.268 7.57,8.877 2.676,2.608 5.466,4.834 8.487,6.774 3.02,1.941 6.231,3.622 9.633,4.868 3.403,1.245 6.958,1.907 10.781,2.607 3.823,0.701 7.876,1.185 12.157,1.595 4.282,0.41 8.755,0.63 13.534,0.864 4.778,0.235 9.748,0.401 15.139,0.542 5.39,0.141 11.163,0.218 17.203,0.303 6.04,0.085 12.272,0.155 19.038,0.208 6.767,0.054 13.954,0.079 21.562,0.113 7.607,0.035 15.559,0.069 24.085,0.095 8.525,0.025 17.509,0.032 27.066,0.059 9.558,0.026 20.185,0.066 30.278,0.1"
           stroke="#00b0f0"
           stroke-width="1.33333"
           stroke-linecap="round"
           stroke-linejoin="round"
           stroke-miterlimit="10"
           fill="none"
           id="path3678" />
      </g>
      <g
         clip-path="url(#clip9)"
         id="g3684">
        <path
           d="m 332.5,478.497 c 2.548,0.641 5.096,2.057 7.645,1.921 2.549,-0.135 5.099,-2.549 7.648,-2.733 2.548,-0.185 5.098,1.477 7.645,1.625 2.547,0.148 5.088,-0.677 7.638,-0.739 2.55,-0.061 5.111,0.345 7.661,0.37 2.55,0.024 5.093,-0.21 7.639,-0.222 2.546,-0.012 5.088,0.136 7.638,0.148 2.55,0.012 5.111,-0.074 7.661,-0.074 2.55,0 5.092,0.062 7.638,0.074 2.546,0.012 5.089,-0.012 7.639,0 2.55,0.012 5.111,0.061 7.661,0.074 2.55,0.012 5.092,-0.013 7.638,0 2.546,0.012 5.089,0.049 7.639,0.074 2.549,0.024 5.111,0.049 7.661,0.074 2.55,0.024 5.092,0.049 7.638,0.073 2.546,0.025 5.088,0.05 7.638,0.074 2.55,0.025 5.112,0.05 7.662,0.074 2.549,0.025 5.092,0.037 7.638,0.074 2.546,0.037 5.088,0.099 7.638,0.148 2.55,0.049 5.111,0.098 7.661,0.148 2.55,0.049 5.093,0.098 7.639,0.147 2.546,0.05 5.088,0.087 7.638,0.148 2.55,0.062 5.111,0.136 7.661,0.222 2.55,0.086 5.092,0.197 7.639,0.295 2.546,0.099 5.088,0.185 7.638,0.296 2.55,0.11 5.111,0.234 7.661,0.369 2.55,0.136 5.092,0.283 7.638,0.443 2.546,0.161 5.089,0.323 7.639,0.518 2.549,0.194 5.111,0.402 7.661,0.65 2.55,0.247 5.103,0.529 7.638,0.835 2.535,0.305 5.008,0.589 7.57,0.997 2.561,0.408 5.237,0.93 7.798,1.448 2.562,0.518 5.047,0.915 7.57,1.662 2.523,0.748 5.008,1.853 7.569,2.823 2.562,0.969 5.238,1.441 7.799,2.992 2.562,1.55 5.046,4.404 7.57,6.309 1.919,1.449 5.621,0.977 7.569,5.12 2.562,5.447 5.505,21.537 7.799,27.564 1.862,4.894 4.225,6.953 5.964,8.6 2.141,2.028 4.473,2.361 6.881,3.568 2.409,1.208 4.894,2.613 7.57,3.68 2.676,1.066 5.466,1.931 8.487,2.718 3.02,0.787 6.231,1.462 9.633,2.004 3.403,0.542 6.958,0.899 10.781,1.249 3.823,0.349 7.876,0.626 12.157,0.846 4.282,0.219 8.755,0.336 13.534,0.47 4.778,0.135 9.748,0.253 15.139,0.337 5.39,0.083 11.163,0.113 17.203,0.165 6.04,0.052 12.272,0.111 19.038,0.143 6.767,0.033 13.954,0.033 21.562,0.054 7.607,0.02 15.559,0.057 24.085,0.072 8.525,0.015 17.509,0.003 27.066,0.015 9.558,0.013 20.185,0.041 30.278,0.061"
           stroke="#ff0000"
           stroke-width="1.33333"
           stroke-linecap="round"
           stroke-linejoin="round"
           stroke-miterlimit="10"
           stroke-dasharray="9.33333, 5.33333"
           fill="none"
           id="path3682" />
      </g>
      <g
         clip-path="url(#clip10)"
         id="g3688">
        <path
           d="m 332.5,396.486 c 2.548,0.616 5.096,1.984 7.645,1.849 2.549,-0.136 5.099,-2.49 7.648,-2.662 2.548,-0.173 5.098,1.466 7.645,1.626 2.547,0.16 5.088,-0.641 7.638,-0.665 2.55,-0.025 5.111,0.444 7.661,0.517 2.55,0.074 5.093,-0.11 7.639,-0.073 2.546,0.036 5.088,0.209 7.638,0.295 2.55,0.087 5.111,0.136 7.661,0.222 2.55,0.086 5.092,0.21 7.638,0.296 2.546,0.086 5.089,0.123 7.639,0.222 2.55,0.098 5.111,0.246 7.661,0.369 2.55,0.124 5.092,0.247 7.638,0.37 2.546,0.123 5.089,0.234 7.639,0.37 2.549,0.135 5.111,0.283 7.661,0.443 2.55,0.161 5.092,0.346 7.638,0.518 2.546,0.173 5.088,0.321 7.638,0.518 2.55,0.197 5.112,0.443 7.662,0.665 2.549,0.222 5.092,0.432 7.638,0.666 2.546,0.234 5.088,0.48 7.638,0.739 2.55,0.259 5.111,0.518 7.661,0.814 2.55,0.295 5.093,0.628 7.639,0.961 2.546,0.332 5.088,0.677 7.638,1.035 2.55,0.357 5.111,0.69 7.661,1.109 2.55,0.419 5.092,0.937 7.639,1.405 2.546,0.468 5.088,0.887 7.638,1.405 2.55,0.517 5.111,1.121 7.661,1.701 2.55,0.579 5.092,1.096 7.638,1.774 2.546,0.678 5.089,1.541 7.639,2.292 2.549,0.752 5.111,1.331 7.661,2.219 2.55,0.887 5.103,2.144 7.638,3.105 2.535,0.961 5.008,1.516 7.57,2.662 2.561,1.146 5.237,3.02 7.798,4.215 2.562,1.195 5.047,1.442 7.57,2.958 2.523,1.516 5.008,4.658 7.569,6.137 2.562,1.479 5.238,0.444 7.799,2.736 2.562,2.292 5.046,8.898 7.57,11.017 1.031,0.867 6.522,-2.051 7.569,1.701 2.562,9.175 5.505,41.638 7.799,53.35 1.724,8.805 4.354,13.894 5.964,16.918 2.141,4.021 4.473,4.524 6.881,7.209 2.409,2.686 4.894,6.293 7.57,8.903 2.676,2.61 5.466,4.822 8.487,6.758 3.02,1.936 6.231,3.614 9.633,4.858 3.403,1.244 6.958,1.906 10.781,2.606 3.823,0.7 7.876,1.185 12.157,1.594 4.282,0.41 8.755,0.629 13.534,0.864 4.778,0.235 9.748,0.402 15.139,0.543 5.39,0.142 11.163,0.218 17.203,0.304 6.04,0.085 12.272,0.155 19.038,0.209 6.767,0.054 13.954,0.078 21.562,0.113 7.607,0.035 15.559,0.07 24.085,0.096 8.525,0.025 17.509,0.031 27.066,0.057 9.558,0.027 20.185,0.067 30.278,0.101"
           stroke="#00b0f0"
           stroke-width="1.33333"
           stroke-linecap="round"
           stroke-linejoin="round"
           stroke-miterlimit="10"
           stroke-dasharray="9.33333, 5.33333"
           fill="none"
           id="path3686" />
      </g>
      <g
         clip-path="url(#clip11)"
         id="g3692">
        <text
           font-family="Calibri, Calibri_MSFontService, sans-serif"
           font-weight="400"
           font-size="13px"
           transform="translate(296.209,560)"
           id="text3690">0.00</text>
      </g>
      <g
         clip-path="url(#clip12)"
         id="g3696">
        <text
           font-family="Calibri, Calibri_MSFontService, sans-serif"
           font-weight="400"
           font-size="13px"
           transform="translate(296.209,531)"
           id="text3694">0.40</text>
      </g>
      <g
         clip-path="url(#clip13)"
         id="g3700">
        <text
           font-family="Calibri, Calibri_MSFontService, sans-serif"
           font-weight="400"
           font-size="13px"
           transform="translate(296.209,501)"
           id="text3698">0.80</text>
      </g>
      <g
         clip-path="url(#clip14)"
         id="g3704">
        <text
           font-family="Calibri, Calibri_MSFontService, sans-serif"
           font-weight="400"
           font-size="13px"
           transform="translate(296.209,472)"
           id="text3702">1.20</text>
      </g>
      <g
         clip-path="url(#clip15)"
         id="g3708">
        <text
           font-family="Calibri, Calibri_MSFontService, sans-serif"
           font-weight="400"
           font-size="13px"
           transform="translate(296.209,442)"
           id="text3706">1.60</text>
      </g>
      <g
         clip-path="url(#clip16)"
         id="g3712">
        <text
           font-family="Calibri, Calibri_MSFontService, sans-serif"
           font-weight="400"
           font-size="13px"
           transform="translate(296.209,413)"
           id="text3710">2.00</text>
      </g>
      <g
         clip-path="url(#clip17)"
         id="g3716">
        <text
           font-family="Calibri, Calibri_MSFontService, sans-serif"
           font-weight="400"
           font-size="13px"
           transform="translate(296.209,383)"
           id="text3714">2.40</text>
      </g>
      <g
         clip-path="url(#clip18)"
         id="g3720">
        <text
           font-family="Calibri, Calibri_MSFontService, sans-serif"
           font-weight="400"
           font-size="13px"
           transform="translate(374.782,577)"
           id="text3718">2</text>
      </g>
      <g
         clip-path="url(#clip19)"
         id="g3724">
        <text
           font-family="Calibri, Calibri_MSFontService, sans-serif"
           font-weight="400"
           font-size="13px"
           transform="translate(420.72,577)"
           id="text3722">4</text>
      </g>
      <g
         clip-path="url(#clip20)"
         id="g3728">
        <text
           font-family="Calibri, Calibri_MSFontService, sans-serif"
           font-weight="400"
           font-size="13px"
           transform="translate(466.658,577)"
           id="text3726">6</text>
      </g>
      <g
         clip-path="url(#clip21)"
         id="g3732">
        <text
           font-family="Calibri, Calibri_MSFontService, sans-serif"
           font-weight="400"
           font-size="13px"
           transform="translate(512.596,577)"
           id="text3730">8</text>
      </g>
      <g
         clip-path="url(#clip22)"
         id="g3736">
        <text
           font-family="Calibri, Calibri_MSFontService, sans-serif"
           font-weight="400"
           font-size="13px"
           transform="translate(555.154,577)"
           id="text3734">10</text>
      </g>
      <g
         clip-path="url(#clip23)"
         id="g3740">
        <text
           font-family="Calibri, Calibri_MSFontService, sans-serif"
           font-weight="400"
           font-size="13px"
           transform="translate(601.092,577)"
           id="text3738">12</text>
      </g>
      <g
         clip-path="url(#clip24)"
         id="g3744">
        <text
           font-family="Calibri, Calibri_MSFontService, sans-serif"
           font-weight="400"
           font-size="13px"
           transform="translate(647.03,577)"
           id="text3742">14</text>
      </g>
      <g
         clip-path="url(#clip25)"
         id="g3748">
        <text
           font-family="'Times New Roman', 'Times New Roman_MSFontService', sans-serif"
           font-style="italic"
           font-weight="400"
           font-size="13px"
           transform="rotate(-90,398.938,110.062)"
           id="text3746">U</text>
      </g>
      <g
         clip-path="url(#clip26)"
         id="g3752">
        <text
           font-family="'Times New Roman', 'Times New Roman_MSFontService', sans-serif"
           font-weight="400"
           font-size="13px"
           transform="rotate(-90,392.438,103.562)"
           id="text3750">=</text>
      </g>
      <g
         clip-path="url(#clip27)"
         id="g3756">
        <text
           font-family="'Times New Roman', 'Times New Roman_MSFontService', sans-serif"
           font-weight="400"
           font-size="13px"
           transform="rotate(-90,386.938,98.062)"
           id="text3754">-</text>
      </g>
      <g
         clip-path="url(#clip28)"
         id="g3760">
        <text
           font-family="'Times New Roman', 'Times New Roman_MSFontService', sans-serif"
           font-style="italic"
           font-weight="400"
           font-size="13px"
           transform="rotate(-90,384.938,96.062)"
           id="text3758">u</text>
      </g>
      <g
         clip-path="url(#clip29)"
         id="g3764">
        <text
           font-family="'Times New Roman', 'Times New Roman_MSFontService', sans-serif"
           font-weight="400"
           font-size="13px"
           transform="rotate(-90,381.438,92.562)"
           id="text3762">(</text>
      </g>
      <g
         clip-path="url(#clip30)"
         id="g3768">
        <text
           font-family="'Times New Roman', 'Times New Roman_MSFontService', sans-serif"
           font-style="italic"
           font-weight="400"
           font-size="13px"
           transform="rotate(-90,378.938,90.062)"
           id="text3766">r</text>
      </g>
      <g
         clip-path="url(#clip31)"
         id="g3772">
        <text
           font-family="'Times New Roman', 'Times New Roman_MSFontService', sans-serif"
           font-weight="400"
           font-size="13px"
           transform="rotate(-90,376.438,87.562)"
           id="text3770">=</text>
      </g>
      <g
         clip-path="url(#clip32)"
         id="g3776">
        <text
           font-family="'Times New Roman', 'Times New Roman_MSFontService', sans-serif"
           font-style="italic"
           font-weight="400"
           font-size="13px"
           transform="rotate(-90,372.938,84.062)"
           id="text3774">R</text>
      </g>
      <g
         clip-path="url(#clip33)"
         id="g3780">
        <text
           font-family="'Times New Roman', 'Times New Roman_MSFontService', sans-serif"
           font-style="italic"
           font-weight="400"
           font-size="11px"
           transform="rotate(-90,368.938,80.062)"
           id="text3778">i</text>
      </g>
      <g
         clip-path="url(#clip34)"
         id="g3784">
        <text
           font-family="'Times New Roman', 'Times New Roman_MSFontService', sans-serif"
           font-weight="400"
           font-size="13px"
           transform="rotate(-90,367.438,78.562)"
           id="text3782">)/</text>
      </g>
      <g
         clip-path="url(#clip35)"
         id="g3788">
        <text
           font-family="'Times New Roman', 'Times New Roman_MSFontService', sans-serif"
           font-style="italic"
           font-weight="400"
           font-size="13px"
           transform="rotate(-90,362.938,74.062)"
           id="text3786">R</text>
      </g>
      <g
         clip-path="url(#clip36)"
         id="g3792">
        <text
           font-family="'Times New Roman', 'Times New Roman_MSFontService', sans-serif"
           font-style="italic"
           font-weight="400"
           font-size="11px"
           transform="rotate(-90,358.938,70.062)"
           id="text3790">i</text>
      </g>
      <g
         clip-path="url(#clip37)"
         id="g3796">
        <text
           font-family="'Times New Roman', 'Times New Roman_MSFontService', sans-serif"
           font-style="italic"
           font-weight="400"
           font-size="13px"
           transform="translate(482.637,597)"
           id="text3794">y</text>
      </g>
      <g
         clip-path="url(#clip38)"
         id="g3800">
        <text
           font-family="'Times New Roman', 'Times New Roman_MSFontService', sans-serif"
           font-weight="400"
           font-size="13px"
           transform="translate(488.557,597)"
           id="text3798">/</text>
      </g>
      <g
         clip-path="url(#clip39)"
         id="g3804">
        <text
           font-family="'Times New Roman', 'Times New Roman_MSFontService', sans-serif"
           font-style="italic"
           font-weight="400"
           font-size="13px"
           transform="translate(492.264,597)"
           id="text3802">R</text>
      </g>
      <g
         clip-path="url(#clip40)"
         id="g3808">
        <text
           font-family="'Times New Roman', 'Times New Roman_MSFontService', sans-serif"
           font-style="italic"
           font-weight="400"
           font-size="11px"
           transform="translate(500.41,597)"
           id="text3806">i</text>
      </g>
      <g
         clip-path="url(#clip41)"
         id="g3812">
        <text
           font-family="'Times New Roman', 'Times New Roman_MSFontService', sans-serif"
           font-weight="700"
           font-size="16px"
           transform="translate(479.792,341)"
           id="text3810">CONVERGENCE PROFILE</text>
      </g>
      <g
         clip-path="url(#clip42)"
         id="g3816">
        <text
           font-family="'Times New Roman', 'Times New Roman_MSFontService', sans-serif"
           font-weight="700"
           font-size="16px"
           transform="translate(394.272,359)"
           id="text3814">ASSOCIATED AND UNASSOCIATED PLASTICITY</text>
      </g>
      <g
         clip-path="url(#clip43)"
         id="g3820">
        <path
           d="m 664.5,427.5 h 33"
           stroke="#ff0000"
           stroke-width="1.33333"
           stroke-linecap="round"
           stroke-linejoin="round"
           stroke-miterlimit="10"
           fill="none"
           fill-rule="evenodd"
           id="path3818" />
      </g>
      <g
         clip-path="url(#clip44)"
         id="g3824">
        <text
           font-family="Calibri, Calibri_MSFontService, sans-serif"
           font-weight="400"
           font-size="13px"
           transform="translate(701.616,432)"
           id="text3822">END EXCAVATION:</text>
      </g>
      <g
         clip-path="url(#clip45)"
         id="g3828">
        <text
           font-family="Calibri, Calibri_MSFontService, sans-serif"
           font-weight="400"
           font-size="13px"
           transform="translate(805.357,432)"
           id="text3826">ϕ = ψ = 15˚</text>
      </g>
      <g
         clip-path="url(#clip46)"
         id="g3832">
        <path
           d="m 664.5,451.5 h 33"
           stroke="#00b0f0"
           stroke-width="1.33333"
           stroke-linecap="round"
           stroke-linejoin="round"
           stroke-miterlimit="10"
           fill="none"
           fill-rule="evenodd"
           id="path3830" />
      </g>
      <g
         clip-path="url(#clip47)"
         id="g3836">
        <text
           font-family="Calibri, Calibri_MSFontService, sans-serif"
           font-weight="400"
           font-size="13px"
           transform="translate(701.616,455)"
           id="text3834">LONG</text>
      </g>
      <g
         clip-path="url(#clip48)"
         id="g3840">
        <text
           font-family="Calibri, Calibri_MSFontService, sans-serif"
           font-weight="400"
           font-size="13px"
           transform="translate(733.07,455)"
           id="text3838">-</text>
      </g>
      <g
         clip-path="url(#clip49)"
         id="g3844">
        <text
           font-family="Calibri, Calibri_MSFontService, sans-serif"
           font-weight="400"
           font-size="13px"
           transform="translate(737.15,455)"
           id="text3842">TERM:</text>
      </g>
      <g
         clip-path="url(#clip50)"
         id="g3848">
        <text
           font-family="Calibri, Calibri_MSFontService, sans-serif"
           font-weight="400"
           font-size="13px"
           transform="translate(775.383,455)"
           id="text3846">ϕ = ψ = 15˚</text>
      </g>
      <g
         clip-path="url(#clip51)"
         id="g3852">
        <path
           d="m 664.5,474.5 h 33"
           stroke="#ff0000"
           stroke-width="1.33333"
           stroke-linecap="round"
           stroke-linejoin="round"
           stroke-miterlimit="10"
           stroke-dasharray="9.33333, 5.33333"
           fill="none"
           fill-rule="evenodd"
           id="path3850" />
      </g>
      <g
         clip-path="url(#clip52)"
         id="g3856">
        <text
           font-family="Calibri, Calibri_MSFontService, sans-serif"
           font-weight="400"
           font-size="13px"
           transform="translate(701.617,479)"
           id="text3854">END EXCAVATION:</text>
      </g>
      <g
         clip-path="url(#clip53)"
         id="g3860">
        <text
           font-family="Calibri, Calibri_MSFontService, sans-serif"
           font-weight="400"
           font-size="13px"
           transform="translate(805.357,479)"
           id="text3858">ϕ = 15˚ , ψ = 0˚</text>
      </g>
      <g
         clip-path="url(#clip54)"
         id="g3864">
        <path
           d="m 664.5,498.5 h 33"
           stroke="#00b0f0"
           stroke-width="1.33333"
           stroke-linecap="round"
           stroke-linejoin="round"
           stroke-miterlimit="10"
           stroke-dasharray="9.33333, 5.33333"
           fill="none"
           fill-rule="evenodd"
           id="path3862" />
      </g>
      <g
         clip-path="url(#clip55)"
         id="g3868">
        <text
           font-family="Calibri, Calibri_MSFontService, sans-serif"
           font-weight="400"
           font-size="13px"
           transform="translate(701.617,502)"
           id="text3866">LONG</text>
      </g>
      <g
         clip-path="url(#clip56)"
         id="g3872">
        <text
           font-family="Calibri, Calibri_MSFontService, sans-serif"
           font-weight="400"
           font-size="13px"
           transform="translate(733.07,502)"
           id="text3870">-</text>
      </g>
      <g
         clip-path="url(#clip57)"
         id="g3876">
        <text
           font-family="Calibri, Calibri_MSFontService, sans-serif"
           font-weight="400"
           font-size="13px"
           transform="translate(737.15,502)"
           id="text3874">TERM:</text>
      </g>
      <g
         clip-path="url(#clip58)"
         id="g3880">
        <text
           font-family="Calibri, Calibri_MSFontService, sans-serif"
           font-weight="400"
           font-size="13px"
           transform="translate(775.383,502)"
           id="text3878">ϕ = 15˚ , ψ = 0˚</text>
      </g>
      <rect
         x="260.5"
         y="316.5"
         width="641"
         height="301"
         stroke="#898989"
         stroke-width="0.666667"
         stroke-linejoin="round"
         stroke-miterlimit="10"
         fill="none"
         id="rect3882" />
    </g>
    <path
       style="fill:#ff0000;fill-opacity:0.389558;fill-rule:evenodd;stroke:#000000;stroke-width:0.25;stroke-miterlimit:10;stroke-dasharray:0.499999, 0.25, 0.125, 0.25;stroke-dashoffset:0;stroke-opacity:1"
       d="m 120.55324,74.64252 c 0,0 0,-44.066796 0,-46.688474"
       id="path1436"
       sodipodi:nodetypes="cc" />
    <text
       xml:space="preserve"
       style="font-size:3.52777px;line-height:1.25;font-family:times;-inkscape-font-specification:times;letter-spacing:0px;stroke-width:0.264583"
       x="80.205429"
       y="72.478142"
       id="text1440"><tspan
         sodipodi:role="line"
         id="tspan1438"
         x="80.205429"
         y="72.478142"
         style="stroke-width:0.264583">Excavation face</tspan></text>
    <path
       style="fill:#000000;fill-opacity:1;fill-rule:evenodd;stroke:#000000;stroke-width:0.25;stroke-miterlimit:10;stroke-dasharray:none;stroke-dashoffset:0;stroke-opacity:1;marker-end:url(#Arrow1Mend-08)"
       d="m 104.27431,71.770202 h 15.574"
       id="path1442" />
  </g>
</svg>
